<svg xmlns="http://www.w3.org/2000/svg" xmlns:xlink="http://www.w3.org/1999/xlink" width="48" zoomAndPan="magnify" viewBox="0 0 36 36.000001" height="48" preserveAspectRatio="xMidYMid meet" version="1.0"><defs><g/><clipPath id="bb4a6d4190"><path d="M 0.488281 0 L 35.511719 0 L 35.511719 35.027344 L 0.488281 35.027344 Z M 0.488281 0 " clip-rule="nonzero"/></clipPath></defs><g clip-path="url(#bb4a6d4190)"><path fill="#ffffff" d="M 0.488281 0 L 35.511719 0 L 35.511719 35.027344 L 0.488281 35.027344 Z M 0.488281 0 " fill-opacity="1" fill-rule="nonzero"/><path fill="#000000" d="M 0.488281 0 L 35.511719 0 L 35.511719 35.027344 L 0.488281 35.027344 Z M 0.488281 0 " fill-opacity="1" fill-rule="nonzero"/></g><g fill="#ffffff" fill-opacity="1"><g transform="translate(1.592483, 25.345945)"><g><path d="M 13.71875 0 L 13 -9.03125 L 12.90625 -9.03125 L 9.78125 -0.09375 L 7.703125 -0.09375 L 4.578125 -9.03125 L 4.484375 -9.03125 L 3.765625 0 L 0.296875 0 L 1.65625 -15.25 L 5.359375 -15.25 L 8.75 -6.453125 L 12.125 -15.25 L 15.828125 -15.25 L 17.1875 0 Z M 13.71875 0 "/></g></g></g><g fill="#ffffff" fill-opacity="1"><g transform="translate(19.077123, 25.345945)"><g><path d="M 14.890625 -8.546875 L 14.890625 -5.234375 C 14.503906 -3.421875 13.644531 -2.046875 12.3125 -1.109375 C 10.976562 -0.179688 9.492188 0.28125 7.859375 0.28125 C 5.796875 0.28125 4.039062 -0.488281 2.59375 -2.03125 C 1.144531 -3.570312 0.421875 -5.429688 0.421875 -7.609375 C 0.421875 -9.828125 1.128906 -11.703125 2.546875 -13.234375 C 3.960938 -14.765625 5.734375 -15.53125 7.859375 -15.53125 C 10.335938 -15.53125 12.296875 -14.660156 13.734375 -12.921875 L 11.453125 -10.421875 C 10.640625 -11.734375 9.507812 -12.390625 8.0625 -12.390625 C 6.988281 -12.390625 6.070312 -11.921875 5.3125 -10.984375 C 4.550781 -10.054688 4.171875 -8.929688 4.171875 -7.609375 C 4.171875 -6.316406 4.550781 -5.210938 5.3125 -4.296875 C 6.070312 -3.378906 6.988281 -2.921875 8.0625 -2.921875 C 8.945312 -2.921875 9.71875 -3.1875 10.375 -3.71875 C 11.039062 -4.257812 11.375 -4.972656 11.375 -5.859375 L 7.859375 -5.859375 L 7.859375 -8.546875 Z M 14.890625 -8.546875 "/></g></g></g></svg>